HIERARCHY
ROOT Hips
{
	OFFSET	0.00	0.00	0.00
	CHANNELS 6 Xposition Yposition Zposition Zrotation Xrotation Yrotation
	JOINT LeftUpLeg
	{
		OFFSET	 0.126116	-0.065224	 0.014019
		CHANNELS 3 Zrotation Xrotation Yrotation
		JOINT LeftLeg
		{
			OFFSET	 0.000000	 0.569914	 0.000000
			CHANNELS 3 Zrotation Xrotation Yrotation
			JOINT LeftFoot
			{
				OFFSET	 0.000000	 0.544423	 0.000000
				CHANNELS 3 Zrotation Xrotation Yrotation
				JOINT LeftToeBase
				{
					OFFSET	 0.000000	 0.207117	 0.000000
					CHANNELS 3 Zrotation Xrotation Yrotation
					End Site
					{
						OFFSET	 0.000000	 0.207117	 0.000000
					}
				}
			}
		}
	}
	JOINT RightUpLeg
	{
		OFFSET	-0.124023	-0.065224	 0.008373
		CHANNELS 3 Zrotation Xrotation Yrotation
		JOINT RightLeg
		{
			OFFSET	 0.000000	 0.570047	 0.000000
			CHANNELS 3 Zrotation Xrotation Yrotation
			JOINT RightFoot
			{
				OFFSET	 0.000000	 0.544354	 0.000000
				CHANNELS 3 Zrotation Xrotation Yrotation
				JOINT RightToeBase
				{
					OFFSET	 0.000000	 0.207540	 0.000000
					CHANNELS 3 Zrotation Xrotation Yrotation
					End Site
					{
						OFFSET	 0.000000	 0.207540	 0.000000
					}
				}
			}
		}
	}
	JOINT Spine
	{
		OFFSET	 0.000184	 0.117403	 0.007763
		CHANNELS 3 Zrotation Xrotation Yrotation
		JOINT Spine1
		{
			OFFSET	 0.000000	 0.137269	 0.000000
			CHANNELS 3 Zrotation Xrotation Yrotation
			JOINT Spine2
			{
				OFFSET	 0.000000	 0.156879	 0.000000
				CHANNELS 3 Zrotation Xrotation Yrotation
				JOINT LeftShoulder
				{
					OFFSET	 0.080501	 0.160143	 0.002496
					CHANNELS 3 Zrotation Xrotation Yrotation
					JOINT LeftArm
					{
						OFFSET	 0.000000	 0.164363	 0.000000
						CHANNELS 3 Zrotation Xrotation Yrotation
						JOINT LeftForeArm
						{
							OFFSET	 0.000000	 0.364576	 0.000000
							CHANNELS 3 Zrotation Xrotation Yrotation
							JOINT LeftHand
							{
								OFFSET	 0.000000	 0.360812	 0.000000
								CHANNELS 3 Zrotation Xrotation Yrotation
								JOINT LeftHandIndex1
								{
									OFFSET	 0.000000	 0.086006	 0.000000
									CHANNELS 3 Zrotation Xrotation Yrotation
									JOINT LeftHandIndex2
									{
										OFFSET	 0.000000	 0.047237	 0.000000
										CHANNELS 3 Zrotation Xrotation Yrotation
										JOINT LeftHandIndex3
										{
											OFFSET	-0.004284	 0.038165	 0.000551
											CHANNELS 3 Zrotation Xrotation Yrotation
											End Site
											{
												OFFSET	-0.004284	 0.038165	 0.000551
											}
										}
									}
								}
							}
						}
					}
				}
				JOINT Neck
				{
					OFFSET	 0.000000	 0.176489	 0.000000
					CHANNELS 3 Zrotation Xrotation Yrotation
					JOINT Head
					{
						OFFSET	 0.000000	 0.077941	 0.001747
						CHANNELS 3 Zrotation Xrotation Yrotation
						End Site
						{
							OFFSET	 0.000000	 0.077941	 0.001747
						}
					}
				}
				JOINT RightShoulder
				{
					OFFSET	-0.080363	 0.159706	-0.000306
					CHANNELS 3 Zrotation Xrotation Yrotation
					JOINT RightArm
					{
						OFFSET	 0.000000	 0.164196	 0.000000
						CHANNELS 3 Zrotation Xrotation Yrotation
						JOINT RightForeArm
						{
							OFFSET	 0.000000	 0.365611	 0.000000
							CHANNELS 3 Zrotation Xrotation Yrotation
							JOINT RightHand
							{
								OFFSET	 0.000000	 0.360648	 0.000000
								CHANNELS 3 Zrotation Xrotation Yrotation
								JOINT RightHandIndex1
								{
									OFFSET	 0.000000	 0.069977	 0.000000
									CHANNELS 3 Zrotation Xrotation Yrotation
									JOINT RightHandIndex2
									{
										OFFSET	 0.000000	 0.052305	 0.000000
										CHANNELS 3 Zrotation Xrotation Yrotation
										JOINT RightHandIndex3
										{
											OFFSET	 0.009002	 0.042196	 0.000782
											CHANNELS 3 Zrotation Xrotation Yrotation
											End Site
											{
												OFFSET	 0.009002	 0.042196	 0.000782
											}
										}
									}
								}
							}
						}
					}
				}
			}
		}
	}
}
MOTION
Frames:    8
Frame Time: 0.03333334
 0.330621	 0.860949	-0.078492	 46.387770	-44.895520	-105.920200	 16.952820	 71.575910	-161.160500	 9.423265	-60.614880	 7.522345	 7.669179	 45.875080	-33.481810	 3.151188	 50.216560	-3.320856	 4.717699	 64.531200	 130.119500	-104.327700	-84.916970	-102.991100	-64.474240	 63.993100	 90.351360	-1.681319	 33.830740	 2.884709	 4.939099	 12.260840	-1.458430	-12.266370	 15.028030	 5.865443	 3.675154	 26.278640	 8.002153	-110.601400	 14.310830	 95.504790	 42.085010	 31.011460	-27.778290	 7.332553	-0.227405	 0.465003	 11.879270	-22.349920	 25.146410	-7.021177	 1.087847	-8.230708	-6.529438	 5.092177	 1.431118	 4.963066	-4.014628	-0.346955	 7.197183	-5.917003	 1.618516	 9.627495	-6.808141	-45.517800	 73.894410	 13.080610	-75.683360	-23.639500	 42.621170	 75.126330	-74.973790	-5.673951	 13.851790	 46.764800	-11.749200	 0.285526	 5.175338	-7.237274	 1.724379	 15.266080	 24.760810	-7.592290	-8.239867	-2.131385	 0.447455
 0.427250	 0.914409	-0.148951	 36.239590	-31.201420	-102.938400	-45.157690	 79.355080	-145.871300	 64.362610	-84.160850	 68.797510	 48.921090	 34.962170	-55.685390	 2.239352	 50.992400	-8.737150	 36.813500	 71.693890	 117.032800	-96.136840	-85.046040	-95.700450	-74.732590	 57.279920	 93.908910	-1.641172	 33.234280	 2.843254	 4.019002	 11.058460	-0.868891	-14.408980	 6.800018	 5.510787	 7.408670	 23.041630	 12.515640	-109.203600	 7.076611	 92.371310	 31.513640	 49.241070	-16.097560	 7.651908	-0.232970	 0.232182	 4.213301	-15.205900	 22.425580	-4.973252	 4.470337	-8.003615	-6.724041	 6.369127	 1.676022	 4.963066	-4.014628	-0.346955	 6.725558	-5.380216	 3.386854	 7.570639	 2.741339	-42.409070	 83.473380	 11.163600	-88.334860	-40.823860	 32.000720	 58.145480	-43.990990	-4.049071	 11.035660	 2.657089	 15.758080	 13.959930	-3.891715	 15.073480	-1.389130	 14.304130	 21.302810	-6.310582	-8.239867	-2.131385	 0.447455
 0.466670	 1.010153	-0.160557	 23.450610	-18.117820	-89.017720	-164.372600	 44.007330	-47.904610	 81.395200	-84.672700	 88.244360	 58.522800	 39.500750	-69.652180	 0.295433	 44.192030	-4.582579	 103.551000	 55.336180	 66.319550	-25.643780	-78.737240	-25.836990	-73.398830	 56.996590	 91.064670	-1.644978	 33.296280	 2.847037	 4.290511	 10.308290	 0.430525	-16.305610	-4.768011	 2.416043	 16.420650	 23.909460	 10.327580	-103.747800	 4.423462	 91.226820	 25.329690	 64.614900	-11.693210	 7.937347	-0.217345	 0.585908	-12.319900	-1.670106	 29.777620	-2.954228	 2.014483	-8.306674	-6.907733	 7.562222	 1.909503	 4.963066	-4.014628	-0.346955	 11.248410	 2.287537	 2.540659	 1.581345	 6.702094	-41.843900	 88.177510	 7.023185	-91.363780	-53.411000	 42.710990	 70.925700	-64.471390	-5.065619	 7.504546	 8.208765	 20.545570	-5.322904	-3.189925	 16.324840	-2.064939	 14.267400	 21.666370	-6.397454	-8.239867	-2.131385	 0.447455
 0.548131	 1.093246	-0.105278	 16.274930	-8.330342	-66.466030	-169.392400	 11.770810	-38.535440	 7.938288	-56.273160	 13.404000	 47.336250	 53.089310	-79.067490	 1.865245	 39.750090	-6.559938	 117.852400	 27.053950	 69.108470	-9.010647	-61.176690	-9.604292	-56.339290	 54.199630	 72.779910	-1.649902	 33.372710	 2.851382	 3.167477	 7.461565	 1.111332	-11.171310	-2.940166	 2.401798	 13.731970	 14.548630	 6.647188	-101.516800	-0.175157	 91.532040	 21.453370	 64.633380	-9.310661	 8.159620	-0.199596	 0.851955	-9.549345	 6.061749	 27.933330	-2.534185	 12.058540	-7.778066	-7.025808	 8.164367	 2.029398	 4.963066	-4.014628	-0.346955	 16.012720	 2.087298	-0.397603	-2.336890	 3.475814	-44.298110	 88.618880	 0.509941	-91.732930	-55.866700	 26.517110	 88.360950	-53.935550	-4.495412	 6.697463	 6.316522	 12.651850	-13.901590	-2.912637	 16.661880	-2.575192	 14.320750	 22.460830	-6.630522	-8.239867	-2.131385	 0.447455
 0.698374	 1.115245	-0.052166	 12.148700	-3.241500	-46.733490	-172.224100	 15.122380	-24.810190	 6.267264	-49.816410	 10.610240	 76.362570	 51.155810	-106.153000	 1.483366	 25.014730	-7.466438	 122.140900	 13.306800	 78.822940	-5.769682	-49.393250	-5.862869	-46.233180	 47.977050	 58.441000	-1.750371	 32.969760	 3.091473	 1.322500	 5.798697	 2.154186	-2.537630	 2.563362	 2.485444	 4.005293	 6.992277	 0.928720	-101.609900	-3.439516	 96.354470	 35.310440	 53.449120	-26.253640	 8.456537	-0.188875	 1.003180	 6.418152	 3.212713	 30.012300	-3.971219	 14.422040	-7.185506	-7.100637	 8.408125	 2.075487	 4.963066	-4.014628	-0.346955	 16.562570	-7.493965	-4.582403	 0.062412	-4.182230	-46.772000	 87.418260	-6.352865	-90.696720	-39.188860	 0.522890	 92.855380	-15.070860	-1.527045	 7.392727	-6.916601	-8.985633	-6.695792	-2.909378	 16.451460	-2.939404	 14.365590	 23.177760	-6.840420	-8.239867	-2.131385	 0.447455
 0.813021	 1.173367	-0.021299	 7.745162	-2.676723	-39.817440	-176.214200	 13.538480	-19.384860	 4.867105	-42.621250	 7.344413	 74.652530	 49.828260	-96.503340	 1.398007	 23.660660	-7.474018	 143.342800	 21.875960	 48.362450	-5.987672	-50.436900	-5.514538	-53.414420	 56.967090	 70.527060	-1.920529	 31.273580	 3.769894	 0.559637	 5.375476	 2.321351	-4.459113	 1.331195	 1.127489	 4.487913	 5.956127	-3.284982	-107.380100	-14.473970	 100.083400	 43.094150	 42.993200	-32.032100	 8.704149	-0.180814	 1.057077	 8.198880	-0.355350	 20.504810	-6.042801	 15.600390	-6.349471	-7.184828	 8.699840	 2.129467	 4.963066	-4.014628	-0.346955	 13.729420	-7.955558	-10.064620	 2.618681	-1.311511	-46.418180	 88.994580	-1.263660	-91.486370	-28.013560	-4.381099	 76.965000	-8.861290	-0.847230	 5.666069	 11.699950	-20.284610	 16.648100	-2.906028	 16.235420	-3.313259	 14.389780	 23.809260	-7.020540	-8.239867	-2.131385	 0.447455
 0.868918	 1.222343	-0.002784	 2.882415	-3.624077	-38.809970	-176.801700	 5.668108	-17.999080	 3.370620	-32.524970	 3.975593	 67.949750	 49.618330	-85.518260	 1.398033	 23.660640	-7.474033	 156.723800	 16.909480	 31.403770	-3.867453	-38.047300	-2.657898	-45.106160	 55.795140	 62.150810	-1.467069	 29.016660	 3.533942	-0.292495	 4.772480	 2.026565	-2.663851	 1.242655	 0.017598	 1.525477	 3.216771	-4.822450	-109.989000	-22.816320	 102.372800	 46.765790	 39.518390	-37.271080	 8.906178	-0.182523	 0.994261	 5.845089	-7.468305	 11.927520	-7.254050	 15.539280	-5.905324	-7.259386	 8.970520	 2.181597	 4.963066	-4.014628	-0.346955	 9.973188	-9.130065	-12.957210	 1.567027	 2.129772	-44.619350	 92.032290	 2.511368	-92.393660	-25.328570	-4.041636	 65.209870	-8.986337	-0.853275	 5.570208	 16.485460	-18.327250	 29.541330	-2.903146	 16.050190	-3.633739	 14.411690	 24.347890	-7.174829	-8.239867	-2.131385	 0.447455
 0.886719	 1.242207	 0.004870	 1.361583	-3.994234	-39.968030	-177.504000	 1.784064	-19.252460	 2.624488	-26.410660	 1.941429	 64.526660	 49.609940	-79.915570	 1.398039	 23.660620	-7.474037	 161.065500	 13.029450	 24.457280	-2.765944	-29.245640	-0.953623	-39.887620	 53.914550	 56.111130	-1.282325	 27.925670	 3.431225	-0.891387	 4.223134	 1.673827	-0.418921	 1.778332	-0.559448	-1.527009	 1.111567	-4.993885	-111.193600	-27.322850	 102.786700	 48.269120	 38.754440	-38.365390	 9.053762	-0.186803	 0.907161	 2.840751	-5.591065	 7.045504	-7.537593	 15.771340	-5.750466	-7.305316	 9.083622	 2.205126	 4.963066	-4.014628	-0.346955	 7.428137	-9.941463	-13.808110	 0.989191	 3.116875	-43.407100	 92.839230	 5.370183	-93.153720	-24.341410	-2.555113	 60.070170	-9.111711	-0.844472	 5.285548	 14.582610	-16.628000	 35.201590	-2.900768	 15.895790	-3.900851	 14.431220	 24.796770	-7.304027	-8.239867	-2.131385	 0.447455
